<?xml version="1.0" encoding="UTF-8" standalone="no"?>
<!DOCTYPE svg PUBLIC "-//W3C//DTD SVG 1.1//EN" "http://www.w3.org/Graphics/SVG/1.1/DTD/svg11.dtd">
<svg version="1.1" xmlns="http://www.w3.org/2000/svg" xmlns:xlink="http://www.w3.org/1999/xlink" preserveAspectRatio="xMidYMid meet" viewBox="0 0 640 640" width="640" height="640"><defs><path d="M0 0L640 0L640 640L0 640L0 0Z" id="b3gs5eqSBm"></path><path d="M97.39 570.76L97.39 513.02C69.59 513.02 54.14 513.02 51.05 513.02C26.55 513.02 6.7 493.44 6.7 469.28C6.7 438.79 6.7 194.91 6.7 164.42C6.7 140.26 26.55 120.68 51.05 120.68C104.84 120.68 535.16 120.68 588.95 120.68C613.43 120.68 633.3 140.26 633.3 164.42C633.3 194.91 633.3 438.79 633.3 469.28C633.3 493.44 613.43 513.02 588.95 513.02C564.53 513.02 420.44 513.02 156.67 513.02L97.39 570.76Z" id="a9IbegfS"></path><path d="M285.52 338.79C285.52 363.51 297.02 369.9 320.03 357.98C343 369.9 354.48 363.51 354.48 338.79C354.48 301.71 337.28 213.07 320.03 213.07C302.79 213.07 285.52 301.71 285.52 338.79Z" id="jd6TXE3hH"></path><path d="M225.72 324.88C169.24 324.88 138.49 289.12 133.47 217.61C133.3 215.11 134.96 212.86 137.4 212.29C165.78 205.69 193.55 202.39 220.73 202.39C247.41 202.39 273.57 205.57 299.2 211.92C302.43 212.73 304.76 215.56 304.9 218.9C307.94 289.55 281.54 324.88 225.72 324.88Z" id="a2alm1FIeG"></path><path d="M413.93 324.85C470.41 324.85 501.16 289.09 506.18 217.58C506.35 215.08 504.69 212.83 502.25 212.26C473.87 205.66 446.1 202.35 418.92 202.35C392.24 202.35 366.09 205.53 340.45 211.89C337.22 212.69 334.9 215.53 334.75 218.86C331.71 289.52 358.11 324.85 413.93 324.85Z" id="aN0QkkhzI"></path><path d="M296.18 237.57C303.67 230.92 311.38 227.59 319.32 227.59C327.26 227.59 335.42 230.92 343.82 237.57L343.82 222.6C335.42 216.25 327.26 213.07 319.32 213.07C316.1 213.07 312.93 213.59 309.78 214.64C305.17 216.17 300.64 218.82 296.18 222.6L296.18 237.57Z" id="e187aXNsN"></path><path d="M220.42 311.62C269.12 314.65 291.95 288.45 288.89 233.01C288.64 228.48 285.51 224.63 281.14 223.45C262.22 218.34 243.49 215.67 224.96 215.45C205.65 215.21 186.44 217.59 167.33 222.58C164.28 223.38 161.96 225.85 161.34 228.94C150.96 280.97 170.66 308.53 220.42 311.62Z" id="c48fTGETc"></path><path d="M419.52 313.06C370.81 316.09 347.99 289.88 351.05 234.45C351.3 229.92 354.42 226.07 358.8 224.88C377.72 219.78 396.45 217.11 414.98 216.88C434.29 216.65 453.5 219.03 472.61 224.02C475.65 224.82 477.98 227.28 478.6 230.37C488.97 282.41 469.28 309.97 419.52 313.06Z" id="kyD0fJQMN"></path><path d="M300.42 433.24C270.14 448.21 241.11 462.27 202.88 456.83C177.4 453.2 158.95 438.08 147.54 411.46C162.2 429.84 180.65 435.89 202.88 429.61C236.23 420.2 250.63 381.97 280.92 373.81C311.2 365.64 319.14 382.09 324.02 396.95C328.89 411.8 330.71 418.27 300.42 433.24Z" id="ffpeduCFG"></path><path d="M339.58 433.24C369.86 448.21 398.89 462.27 437.12 456.83C462.6 453.2 481.05 438.08 492.46 411.46C477.8 429.84 459.35 435.89 437.12 429.61C403.77 420.2 389.37 381.97 359.08 373.81C328.8 365.64 320.86 382.09 315.98 396.95C311.11 411.8 309.29 418.27 339.58 433.24Z" id="d6PFc7uKoX"></path><path d="M266.79 378.46C280.36 392.26 360.33 392.26 373.41 378.46C382.13 369.27 364.03 349.07 319.1 317.85C275.17 349.07 257.73 369.27 266.79 378.46Z" id="bshASj9wh"></path></defs><g><g><g><use xlink:href="#b3gs5eqSBm" opacity="1" fill="#303030" fill-opacity="1"></use></g><g><use xlink:href="#a9IbegfS" opacity="1" fill="#ffffff" fill-opacity="1"></use><g><use xlink:href="#a9IbegfS" opacity="1" fill-opacity="0" stroke="#000000" stroke-width="10" stroke-opacity="1"></use></g></g><g><use xlink:href="#jd6TXE3hH" opacity="1" fill="#d89362" fill-opacity="1"></use></g><g><use xlink:href="#a2alm1FIeG" opacity="1" fill="#000000" fill-opacity="1"></use></g><g><use xlink:href="#aN0QkkhzI" opacity="1" fill="#000000" fill-opacity="1"></use></g><g><use xlink:href="#e187aXNsN" opacity="1" fill="#000000" fill-opacity="1"></use></g><g><use xlink:href="#c48fTGETc" opacity="1" fill="#ffffff" fill-opacity="1"></use></g><g><use xlink:href="#kyD0fJQMN" opacity="1" fill="#ffffff" fill-opacity="1"></use></g><g><use xlink:href="#ffpeduCFG" opacity="1" fill="#000000" fill-opacity="1"></use></g><g><use xlink:href="#d6PFc7uKoX" opacity="1" fill="#000000" fill-opacity="1"></use></g><g><use xlink:href="#bshASj9wh" opacity="1" fill="#d89362" fill-opacity="1"></use></g></g></g></svg>