<?xml version="1.0" encoding="UTF-8" standalone="no"?>
<!DOCTYPE svg PUBLIC "-//W3C//DTD SVG 1.1//EN" "http://www.w3.org/Graphics/SVG/1.1/DTD/svg11.dtd">
<svg version="1.1" xmlns="http://www.w3.org/2000/svg" xmlns:xlink="http://www.w3.org/1999/xlink" preserveAspectRatio="xMidYMid meet" viewBox="0 0 640 640" width="640" height="640"><defs><path d="M264.43 356.99C264.43 397.02 283.07 407.38 320.34 388.06C357.53 407.38 376.13 397.02 376.13 356.99C376.13 296.94 348.26 153.38 320.34 153.38C292.41 153.38 264.43 296.94 264.43 356.99Z" id="c2AyyW47Ws"></path><path d="M167.58 334.46C76.11 334.46 26.31 276.55 18.18 160.73C17.9 156.68 20.59 153.03 24.55 152.11C70.5 141.42 115.49 136.07 159.5 136.07C202.71 136.07 245.08 141.22 286.59 151.52C291.83 152.81 295.59 157.41 295.82 162.81C300.75 277.24 258 334.46 167.58 334.46Z" id="c4979x3KCB"></path><path d="M472.42 334.41C563.89 334.41 613.69 276.5 621.82 160.68C622.1 156.63 619.41 152.98 615.45 152.06C569.5 141.36 524.51 136.02 480.5 136.02C437.29 136.02 394.92 141.17 353.41 151.46C348.17 152.76 344.41 157.36 344.18 162.75C339.25 277.19 382 334.41 472.42 334.41Z" id="a2smlxYzHj"></path><path d="M281.71 193.05C293.83 182.28 306.32 176.89 319.18 176.89C332.04 176.89 345.26 182.28 358.86 193.05L358.86 168.81C345.26 158.52 332.04 153.38 319.18 153.38C313.97 153.38 308.82 154.22 303.74 155.91C296.26 158.39 288.92 162.69 281.71 168.81L281.71 193.05Z" id="fkDs9HDm2"></path><path d="M159 312.99C237.88 317.89 274.85 275.45 269.89 185.67C269.49 178.34 264.43 172.09 257.34 170.18C226.7 161.91 196.37 157.59 166.35 157.22C135.08 156.84 103.97 160.69 73.02 168.78C68.08 170.07 64.31 174.06 63.32 179.07C46.51 263.34 78.41 307.98 159 312.99Z" id="ah6hLUOyU"></path><path d="M481.47 315.32C402.58 320.22 365.62 277.78 370.57 187.99C370.98 180.67 376.04 174.42 383.12 172.51C413.76 164.24 444.09 159.92 474.12 159.55C505.39 159.17 536.49 163.02 567.44 171.11C572.38 172.4 576.15 176.39 577.15 181.4C593.95 265.67 562.06 310.31 481.47 315.32Z" id="aymOGaNZd"></path><path d="M288.58 509.96C239.53 534.21 192.51 556.99 130.6 548.17C89.33 542.29 59.45 517.8 40.96 474.69C64.72 504.45 94.6 514.25 130.6 504.08C184.61 488.84 207.94 426.93 256.98 413.71C306.03 400.48 318.89 427.11 326.79 451.18C334.68 475.24 337.62 485.71 288.58 509.96Z" id="aR7B90Z3r"></path><path d="M351.99 509.96C401.03 534.21 448.06 556.99 509.96 548.17C551.23 542.29 581.11 517.8 599.61 474.69C575.85 504.45 545.97 514.25 509.96 504.08C455.96 488.84 432.63 426.93 383.58 413.71C334.54 400.48 321.68 427.11 313.78 451.18C305.88 475.24 302.94 485.71 351.99 509.96Z" id="d6nBSHHmU"></path><path d="M234.1 421.25C256.08 443.58 385.6 443.58 406.78 421.25C420.9 406.35 391.59 373.63 318.83 323.08C247.68 373.63 219.44 406.35 234.1 421.25Z" id="askyHg51t"></path></defs><g><g><g><use xlink:href="#c2AyyW47Ws" opacity="1" fill="#d89362" fill-opacity="1"></use></g><g><use xlink:href="#c4979x3KCB" opacity="1" fill="#000000" fill-opacity="1"></use></g><g><use xlink:href="#a2smlxYzHj" opacity="1" fill="#000000" fill-opacity="1"></use></g><g><use xlink:href="#fkDs9HDm2" opacity="1" fill="#000000" fill-opacity="1"></use></g><g><use xlink:href="#ah6hLUOyU" opacity="1" fill="#ffffff" fill-opacity="1"></use></g><g><use xlink:href="#aymOGaNZd" opacity="1" fill="#ffffff" fill-opacity="1"></use></g><g><use xlink:href="#aR7B90Z3r" opacity="1" fill="#000000" fill-opacity="1"></use></g><g><use xlink:href="#d6nBSHHmU" opacity="1" fill="#000000" fill-opacity="1"></use></g><g><use xlink:href="#askyHg51t" opacity="1" fill="#d89362" fill-opacity="1"></use></g></g></g></svg>